HIERARCHY
ROOT Hips
{
  OFFSET 54.7177 83.8969 8.4833
  CHANNELS 6 Xposition Yposition Zposition Zrotation Xrotation Yrotation
  JOINT spine
  {
    OFFSET 0 5.95438 0.342407
    CHANNELS 3 Zrotation Xrotation Yrotation
    JOINT spine1
    {
      OFFSET 0 8.85602 0
      CHANNELS 3 Zrotation Xrotation Yrotation
      JOINT spine2
      {
        OFFSET 0 8.48567 0
        CHANNELS 3 Zrotation Xrotation Yrotation
        JOINT Neck
        {
          OFFSET 0 21.7863 1.0387
          CHANNELS 3 Zrotation Xrotation Yrotation
          JOINT Head
          {
            OFFSET 0 6.5822 0
            CHANNELS 3 Zrotation Xrotation Yrotation
            End Site
            {
              OFFSET 0 15.9326 -5.25436
            }
          }
        }
        JOINT RightShoulder
        {
          OFFSET -3.57307 9.16386 -0.497525
          CHANNELS 3 Zrotation Xrotation Yrotation
          JOINT RightArm
          {
            OFFSET 0 12.0192 0
            CHANNELS 3 Zrotation Xrotation Yrotation
            JOINT RightArmRoll
            {
              OFFSET 0 6.06755 0
              CHANNELS 3 Zrotation Xrotation Yrotation
              JOINT RightForeArm
              {
                OFFSET 0 17.6726 0
                CHANNELS 3 Zrotation Xrotation Yrotation
                JOINT RightForeArmRoll
                {
                  OFFSET 0 6.80872 0
                  CHANNELS 3 Zrotation Xrotation Yrotation
                  JOINT RightHand
                  {
                    OFFSET 0 13.6636 0
                    CHANNELS 3 Zrotation Xrotation Yrotation
                    End Site
                    {
                      OFFSET 0 0 0
                    }
                  }
                }
              }
            }
          }
        }
        JOINT LeftShoulder
        {
          OFFSET 3.57307 9.16386 -0.497525
          CHANNELS 3 Zrotation Xrotation Yrotation
          JOINT LeftArm
          {
            OFFSET 0 12.0192 0
            CHANNELS 3 Zrotation Xrotation Yrotation
            JOINT LeftArmRoll
            {
              OFFSET 0 6.06754 0
              CHANNELS 3 Zrotation Xrotation Yrotation
              JOINT LeftForeArm
              {
                OFFSET 0 17.6726 0
                CHANNELS 3 Zrotation Xrotation Yrotation
                JOINT LeftForeArmRoll
                {
                  OFFSET 0 6.80872 0
                  CHANNELS 3 Zrotation Xrotation Yrotation
                  JOINT LeftHand
                  {
                    OFFSET 0 13.6636 0
                    CHANNELS 3 Zrotation Xrotation Yrotation
                    End Site
                    {
                      OFFSET 0 0 0
                    }
                  }
                }
              }
            }
          }
        }
      }
    }
  }
  JOINT RightUpLeg
  {
    OFFSET -5.27774 -0.967797 -0.811858
    CHANNELS 3 Zrotation Xrotation Yrotation
    JOINT RightUpLegRoll
    {
      OFFSET 0 16.0214 0
      CHANNELS 3 Zrotation Xrotation Yrotation
      JOINT RightLeg
      {
        OFFSET 0 -19.8401 0
        CHANNELS 3 Zrotation Xrotation Yrotation
        JOINT RightLegRoll
        {
          OFFSET 0 19.905 0
          CHANNELS 3 Zrotation Xrotation Yrotation
          JOINT RightFoot
          {
            OFFSET 0 16.5675 0
            CHANNELS 3 Zrotation Xrotation Yrotation
            JOINT RightToeBase
            {
              OFFSET 0 13.8496 0
              CHANNELS 3 Zrotation Xrotation Yrotation
              End Site
              {
                OFFSET 0.00587034 6.70727 -0.773117
              }
            }
          }
        }
      }
    }
  }
  JOINT LeftUpLeg
  {
    OFFSET 5.27774 -0.967797 -0.811858
    CHANNELS 3 Zrotation Xrotation Yrotation
    JOINT LeftUpLegRoll
    {
      OFFSET 0 16.0215 0
      CHANNELS 3 Zrotation Xrotation Yrotation
      JOINT LeftLeg
      {
        OFFSET 0 19.84 0
        CHANNELS 3 Zrotation Xrotation Yrotation
        JOINT LeftLegRoll
        {
          OFFSET 0 20.089 0
          CHANNELS 3 Zrotation Xrotation Yrotation
          JOINT LeftFoot
          {
            OFFSET 0 16.3835 0
            CHANNELS 3 Zrotation Xrotation Yrotation
            JOINT LeftToeBase
            {
              OFFSET 0 13.8496 0
              CHANNELS 3 Zrotation Xrotation Yrotation
              End Site
              {
                OFFSET -0.0263083 6.70728 -0.773117
              }
            }
          }
        }
      }
    }
  }
}
MOTION
Frames: 5
Frame Time: 0.00208333
52.8937 83.9753 1.82313 2.00515 -4.86498 0.0766228 -0.0157221 0.195594 0.11978 -0.0380221 4.39398 0.241957 -0.0410609 6.03906 0.243191 -8.39942 17.7106 -1.21489 10.5396 2.44278 -3.76344 62.424 -1.67902 -1.33877 121.014 16.528 -20.9545 -8.74653e-015 -1.59028e-015 -6.36111e-015 -3.63692 -0.0212122 -1.99215 -3.35469e-006 -1.9724e-006 -3.01159 8.0301 -4.95138 0.697623 -60.1849 -6.11784 3.82292 -125.724 18.3731 25.1862 -3.75679e-006 -9.19249e-007 -8.62552e-007 3.64005 -0.0255167 1.99239 -1.19763e-006 2.77872e-006 3.0116 -8.03009 -4.95138 -0.697629 176.427 6.13056 4.61505 180 7.01561e-015 178.987 176.644 15.6222 179.96 -3.00586e-007 -2.57474e-006 0.264467 -21.2331 70.8327 22.2485 8.13936 25.2325 -3.48896 175.605 3.05884 4.22985 4.54188e-006 -4.6773e-006 -1.07201 -0.265762 -11.9704 0.374224 -6.34484e-007 4.09912e-006 -0.189003 19.3823 68.8677 -20.2721 -8.13859 25.2326 3.48863 
52.8821 83.9915 1.86237 1.99384 -4.82116 0.0826824 -0.0158444 0.1982 0.11975 -0.0379186 4.39919 0.241892 -0.0409513 6.04427 0.243114 -8.37026 17.4948 -1.24603 10.5512 2.45738 -3.7706 62.4371 -1.70347 -1.35427 121.025 16.5478 -20.9726 -2.70347e-014 -9.54166e-015 -3.18055e-015 -3.63692 -0.0212122 -1.99215 -3.35469e-006 -1.9724e-006 -3.01159 8.0301 -4.95138 0.697623 -60.0979 -6.13574 3.82974 -125.819 18.3785 25.2847 -3.75679e-006 -9.19249e-007 -8.62552e-007 3.64005 -0.0255167 1.99239 -1.19763e-006 2.77872e-006 3.0116 -8.03009 -4.95138 -0.697629 176.448 6.17388 4.59595 180 7.01561e-015 178.987 176.65 15.6206 179.959 -3.00586e-007 -2.57474e-006 0.264462 -21.2279 70.828 22.243 8.13936 25.2325 -3.48896 175.627 3.12426 4.21103 4.54188e-006 -4.6773e-006 -1.07005 -0.284287 -12.0028 0.374326 -6.34484e-007 4.09912e-006 -0.188288 19.3639 68.8474 -20.2544 -8.13859 25.2326 3.48863 
52.8891 83.9832 1.84179 1.98265 -4.77817 0.0896419 -0.0160896 0.201021 0.119705 -0.0380488 4.40484 0.241816 -0.0410755 6.04991 0.243028 -8.33914 17.2772 -1.27791 10.5627 2.47305 -3.77777 62.4519 -1.72942 -1.3708 121.035 16.5683 -20.99 7.95139e-016 4.77083e-015 -3.18055e-015 -3.63692 -0.0212122 -1.99215 -3.35469e-006 -1.9724e-006 -3.01159 8.0301 -4.95138 0.697623 -60.0072 -6.15366 3.83639 -125.918 18.3834 25.3868 -3.75679e-006 -9.19249e-007 -8.62552e-007 3.64005 -0.0255167 1.99239 -1.19763e-006 2.77872e-006 3.0116 -8.03009 -4.95138 -0.697629 176.469 6.21621 4.57734 180 7.01561e-015 178.987 176.656 15.619 179.958 -3.00586e-007 -2.57474e-006 0.264453 -21.2229 70.8236 22.2378 8.13936 25.2325 -3.48896 175.649 3.18878 4.19141 4.54188e-006 -4.6773e-006 -1.06805 -0.30364 -12.035 0.374372 -6.34484e-007 4.09912e-006 -0.187534 19.3448 68.8264 -20.236 -8.13859 25.2326 3.48863 
52.8849 83.9872 1.85641 1.97153 -4.73577 0.097231 -0.0164207 0.203994 0.119649 -0.0383426 4.41078 0.241732 -0.0413633 6.05585 0.242937 -8.30671 17.0582 -1.31031 10.574 2.48946 -3.78495 62.4679 -1.75642 -1.38806 121.044 16.5895 -21.0071 7.95139e-016 -1.59028e-015 -3.18055e-015 -3.63692 -0.0212122 -1.99215 -3.35469e-006 -1.9724e-006 -3.01159 8.0301 -4.95138 0.697623 -59.9139 -6.17159 3.84292 -126.019 18.3879 25.4914 -3.75679e-006 -9.19249e-007 -8.62552e-007 3.64005 -0.0255167 1.99239 -1.19763e-006 2.77872e-006 3.0116 -8.03009 -4.95138 -0.697629 176.49 6.25787 4.55907 180 7.01561e-015 178.987 176.662 15.6175 179.957 -3.00586e-007 -2.57474e-006 0.264442 -21.2182 70.8194 22.2327 8.13936 25.2325 -3.48896 175.672 3.25267 4.17122 4.54188e-006 -4.6773e-006 -1.06604 -0.323573 -12.067 0.374378 -6.34484e-007 4.09912e-006 -0.186752 19.3253 68.8049 -20.2172 -8.13859 25.2326 3.48863 
52.8853 83.9815 1.85283 1.96046 -4.6937 0.105179 -0.0168009 0.207052 0.119588 -0.0387299 4.4169 0.241644 -0.0417446 6.06197 0.242842 -8.27366 16.8384 -1.34297 10.5852 2.50629 -3.79214 62.4845 -1.78401 -1.40574 121.053 16.6109 -21.0239 1.07344e-014 3.18055e-015 -3.18055e-015 -3.63692 -0.0212122 -1.99215 -3.35469e-006 -1.9724e-006 -3.01159 8.0301 -4.95138 0.697623 -59.8191 -6.18953 3.84938 -126.122 18.3921 25.5974 -3.75679e-006 -9.19249e-007 -8.62552e-007 3.64005 -0.0255167 1.99239 -1.19763e-006 2.77872e-006 3.0116 -8.03009 -4.95138 -0.697629 176.51 6.29914 4.541 180 7.01561e-015 178.987 176.667 15.616 179.956 -3.00586e-007 -2.57474e-006 0.264431 -21.2135 70.8152 22.2277 8.13936 25.2325 -3.48896 175.695 3.3162 4.15072 4.54188e-006 -4.6773e-006 -1.06402 -0.343837 -12.099 0.374361 -6.34484e-007 4.09912e-006 -0.185956 19.3056 68.7831 -20.1982 -8.13859 25.2326 3.48863 
